HIERARCHY
ROOT hip
{
	OFFSET 0.000000 0.000000 0.000000 
	CHANNELS 6 Xposition Yposition Zposition Xrotation Zrotation Yrotation
	JOINT abdomen
	{
		OFFSET 0.000000 3.402643 0.000000 
		CHANNELS 3 Xrotation Zrotation Yrotation
		JOINT chest
		{
			OFFSET 0.000000 8.438565 -0.680529 
			CHANNELS 3 Xrotation Zrotation Yrotation
			JOINT neck
			{
				OFFSET 0.000000 10.207942 -0.272212 
				CHANNELS 3 Xrotation Zrotation Yrotation
				JOINT head
				{
					OFFSET 0.000000 3.130431 0.000000 
					CHANNELS 3 Xrotation Zrotation Yrotation
					End Site
					{
						OFFSET 0.000000 3.130435 0.000000 
					}
				}
			}
			JOINT lCollar
			{
				OFFSET 3.470700 6.669187 -0.816635 
				CHANNELS 3 Yrotation Zrotation Xrotation
				JOINT lShldr
				{
					OFFSET 3.198488 0.000000 0.000000 
					CHANNELS 3 Zrotation Yrotation Xrotation
					JOINT lForeArm
					{
						OFFSET 10.139888 0.000000 0.000000 
						CHANNELS 3 Yrotation Zrotation Xrotation
						JOINT lHand
						{
							OFFSET 8.370511 0.000000 0.000000 
							CHANNELS 3 Zrotation Yrotation Xrotation
							End Site
							{
								OFFSET 4.083176 0.000000 0.000000 
							}
						}
					}
				}
			}
			JOINT rCollar
			{
				OFFSET -3.470700 6.669187 -0.816635 
				CHANNELS 3 Yrotation Zrotation Xrotation
				JOINT rShldr
				{
					OFFSET -3.198488 0.000000 0.000000 
					CHANNELS 3 Zrotation Yrotation Xrotation
					JOINT rForeArm
					{
						OFFSET -10.139888 0.000000 0.000000 
						CHANNELS 3 Yrotation Zrotation Xrotation
						JOINT rHand
						{
							OFFSET -8.370511 0.000000 0.000000 
							CHANNELS 3 Zrotation Yrotation Xrotation
							End Site
							{
								OFFSET -4.083176 0.000000 0.000000 
							}
						}
					}
				}
			}
		}
	}
	JOINT lThigh
	{
		OFFSET 5.308129 -1.633274 1.361059 
		CHANNELS 3 Xrotation Zrotation Yrotation
		JOINT lShin
		{
			OFFSET -2.041588 -20.007561 0.000000 
			CHANNELS 3 Xrotation Zrotation Yrotation
			JOINT lFoot
			{
				OFFSET 0.000000 -19.190928 -1.224953 
				CHANNELS 3 Xrotation Yrotation Zrotation
				End Site
				{
					OFFSET 0.000000 -2.449906 4.627600 
				}
			}
		}
	}
	JOINT rThigh
	{
		OFFSET -5.308129 -1.633274 1.361059 
		CHANNELS 3 Xrotation Zrotation Yrotation
		JOINT rShin
		{
			OFFSET 2.041588 -20.007561 0.000000 
			CHANNELS 3 Xrotation Zrotation Yrotation
			JOINT rFoot
			{
				OFFSET 0.000000 -19.190928 -1.224953 
				CHANNELS 3 Xrotation Yrotation Zrotation
				End Site
				{
					OFFSET 0.000000 -2.449906 4.627600 
				}
			}
		}
	}
}
MOTION
Frames: 15
Frame Time: 0.016667
-0.739409 51.234097 -20.814117 -8.322209 -12.174443 -44.985188 30.611036 6.082552 2.582063 1.423803 3.220800 -3.010777 1.841416 -2.743823 -0.118701 16.112286 -7.059557 26.820843 -5.891824 -5.620017 -0.288656 -28.656778 5.184846 -5.121055 -87.661339 5.000000 -0.691889 -25.908064 -16.818953 21.437214 3.084560 0.080554 -0.001829 47.421322 34.028206 16.255253 103.928185 -2.135416 0.972023 25.293919 -12.567243 2.902479 -1.006458 23.277195 7.759026 19.694105 -6.065938 -2.480524 2.374147 4.436396 -10.183850 24.774889 -6.748095 -12.889593 15.279727 2.027694 0.535698 -20.493217 -7.271785 8.116171 
-0.749806 51.239571 -20.794558 -8.174215 -12.091082 -45.109821 30.630606 6.082428 2.580499 1.299153 3.201336 -2.971216 1.763818 -2.774248 -0.123966 16.029564 -7.103282 26.961071 -5.197485 -5.424967 -0.278587 -28.987118 7.631728 -5.549567 -89.274719 5.000000 -0.172785 -25.923044 -16.694965 21.260056 2.557228 -0.182766 0.011782 45.406002 31.640387 13.551518 105.131859 -1.079349 0.757469 25.163355 -12.689204 2.772677 -1.113730 23.310276 7.865180 19.735233 -6.034564 -2.440365 2.295227 4.322680 -10.213365 24.718777 -6.757132 -12.822993 15.060818 2.044814 0.525420 -20.447701 -7.242348 8.147585 
-0.764735 51.244232 -20.771351 -8.016541 -11.972631 -45.198391 30.672300 6.057679 2.612684 1.145508 3.172109 -2.912671 1.666201 -2.793560 -0.121045 15.950279 -7.097756 27.049318 -4.463889 -5.181154 -0.265997 -29.565130 10.268899 -6.035146 -91.106171 5.000000 0.400614 -26.087713 -16.475998 21.282309 1.893211 -0.368066 0.021360 43.514534 28.882494 10.998888 106.652161 -0.124628 0.540675 25.038418 -12.838114 2.650036 -1.240858 23.321264 7.976910 19.787525 -5.996403 -2.430235 2.206610 4.272977 -10.219577 24.665888 -6.757661 -12.783005 14.808818 2.086684 0.515747 -20.351004 -7.223876 8.162529 
-0.782686 51.248341 -20.745716 -7.846084 -11.842708 -45.271782 30.716152 6.009599 2.679814 0.982702 3.123360 -2.844361 1.539765 -2.814330 -0.127769 15.864488 -7.059905 27.096483 -3.700963 -4.917837 -0.251557 -30.295597 13.030643 -6.582662 -93.066109 5.000000 1.001432 -26.334389 -16.192476 21.409328 1.141312 -0.504603 0.028417 41.778851 25.863134 8.626298 108.372040 0.752017 0.296734 24.921541 -13.000968 2.530267 -1.406956 23.330694 8.053358 19.837368 -5.967385 -2.410771 2.109509 4.250095 -10.207275 24.596659 -6.748039 -12.770604 14.558128 2.106822 0.542522 -20.260315 -7.231601 8.138769 
-0.802845 51.252457 -20.720041 -7.681649 -11.696417 -45.322777 30.758541 5.957137 2.733543 0.811129 3.074641 -2.746253 1.422597 -2.823986 -0.126309 15.786839 -7.015217 27.113436 -2.928254 -4.635013 -0.236988 -31.163975 15.800647 -7.195909 -95.024261 5.000000 1.595309 -26.613010 -15.921137 21.592623 0.330715 -0.611938 0.024197 40.236713 22.680386 6.438436 110.164574 1.557908 0.027760 24.825565 -13.156423 2.408790 -1.592441 23.338005 8.117103 19.881048 -5.956355 -2.422303 2.067669 4.251325 -10.195787 24.559406 -6.738582 -12.797937 14.273585 2.154490 0.570389 -20.185825 -7.196769 8.150646 
-0.831846 51.256565 -20.694229 -7.528501 -11.504089 -45.283474 30.778055 5.839159 2.767704 0.604088 3.006488 -2.599927 1.324899 -2.804674 -0.129229 15.713145 -6.892585 26.977032 -2.096643 -4.254664 -0.217387 -32.454845 18.581394 -7.972421 -96.936378 5.000000 2.180871 -26.984802 -15.694881 21.923666 -0.645848 -0.611771 0.024197 38.933952 19.040998 4.474093 112.183723 2.187025 -0.194015 24.882921 -13.305265 2.249742 -1.797653 23.305273 8.145869 19.862751 -5.946808 -2.438452 2.055588 4.196351 -10.173945 24.493410 -6.698780 -12.907227 14.004052 2.173948 0.557144 -20.119419 -7.242925 8.148214 
-0.860846 51.260677 -20.668415 -7.384853 -11.311624 -45.242893 30.807446 5.743411 2.800942 0.396518 2.948080 -2.453083 1.227198 -2.785363 -0.132150 15.635569 -6.778908 26.832247 -1.255400 -3.874315 -0.197776 -33.807526 21.341328 -8.825633 -98.859512 5.000000 2.774393 -27.354370 -15.465403 22.252842 -1.622414 -0.601852 0.023697 37.786922 15.356212 2.647122 114.206841 2.780928 -0.450876 24.940981 -13.453855 2.092731 -2.002567 23.279755 8.185163 19.857801 -5.928434 -2.435658 1.993691 4.175449 -10.129493 24.459593 -6.689397 -13.044426 13.736471 2.233392 0.586540 -20.063885 -7.213705 8.134903 
-0.896032 51.262592 -20.646585 -7.235760 -11.097076 -45.171021 30.836941 5.585894 2.850185 0.179708 2.879905 -2.267197 1.109478 -2.754937 -0.126886 15.542910 -6.672266 26.560562 -0.277206 -3.376934 -0.172118 -35.622242 23.746899 -9.851530 -100.474487 5.000000 3.331181 -27.684618 -15.383636 22.462681 -2.686877 -0.572413 0.022191 36.985077 11.369209 1.014794 116.211670 3.200948 -0.705637 25.090370 -13.599881 1.966136 -2.246414 23.251242 8.179100 19.834211 -5.937405 -2.454747 1.997577 4.057556 -10.171309 24.416561 -6.679227 -13.202082 13.502249 2.272426 0.586562 -20.026110 -7.199999 8.099755 
-0.932760 51.263962 -20.625751 -7.103882 -10.871972 -45.075539 30.866335 5.438412 2.903322 -0.047628 2.811699 -2.081306 0.992226 -2.725970 -0.131267 15.447052 -6.574769 26.269579 0.739901 -2.850295 -0.144936 -37.607838 26.041245 -10.990694 -102.027580 5.000000 3.901622 -27.996784 -15.335135 22.631727 -3.770875 -0.533218 0.020185 36.368748 7.302797 -0.516448 118.208908 3.567528 -0.981089 25.254150 -13.749739 1.866527 -2.461554 23.185364 8.165474 19.790539 -5.948436 -2.442206 1.949597 4.005494 -10.127399 24.358833 -6.650342 -13.364050 13.255731 2.320820 0.596472 -19.992960 -7.221465 8.042830 
-0.969442 51.264236 -20.610432 -6.961479 -10.646275 -44.982780 30.876453 5.265187 2.965775 -0.255648 2.763014 -1.895902 0.884803 -2.725970 -0.131267 15.341457 -6.477082 25.968967 1.805667 -2.284645 -0.115727 -39.757233 28.013372 -12.221419 -103.373489 5.000000 4.461137 -28.280497 -15.326162 22.726727 -4.835242 -0.524108 0.029425 35.977791 3.244717 -1.933798 120.069862 3.870165 -1.244341 25.399576 -13.854824 1.794820 -2.705366 23.164307 8.130507 19.761957 -5.976753 -2.443890 1.938152 3.892660 -10.126278 24.295376 -6.640801 -13.541444 13.056060 2.379401 0.619358 -19.960339 -7.172192 8.007174 
-1.006050 51.262867 -20.603380 -6.810319 -10.421720 -44.879665 30.869419 5.089039 3.059851 -0.444258 2.733849 -1.710035 0.778426 -2.777165 -0.143255 15.249856 -6.370366 25.657658 2.939590 -1.660478 -0.083201 -42.088436 29.538368 -13.493066 -104.414818 5.000000 4.993788 -28.490286 -15.419362 22.667103 -5.880149 -0.553366 0.030937 35.872417 -0.759860 -3.239183 121.706268 4.133290 -1.486178 25.512291 -13.914753 1.770616 -2.978754 23.139172 8.061329 19.721506 -5.977500 -2.420980 1.949898 3.821922 -10.130648 24.186331 -6.611692 -13.703848 12.899733 2.418512 0.623527 -19.956564 -7.129599 7.953736 
-1.042660 51.261501 -20.596331 -6.668106 -10.196497 -44.779202 30.850237 4.899808 3.136554 -0.632998 2.704669 -1.524171 0.671598 -2.826901 -0.145598 15.148303 -6.263340 25.336748 4.073153 -1.046063 -0.051555 -44.477814 31.016510 -14.850416 -105.466454 5.000000 5.551813 -28.698700 -15.500262 22.610474 -6.915290 -0.582623 0.032450 35.855446 -4.769583 -4.541329 123.344444 4.384199 -1.743983 25.625034 -13.974642 1.746167 -3.232563 23.113945 7.995252 19.679958 -6.015959 -2.413616 1.920792 3.809642 -10.135036 24.095764 -6.591252 -13.888721 12.715649 2.444815 0.625090 -19.944130 -7.078774 7.928051 
-1.071893 51.261501 -20.606407 -6.505877 -10.041708 -44.680286 30.812933 4.811598 3.203791 -0.744049 2.665702 -1.338756 0.614199 -2.916718 -0.151740 15.063277 -6.171709 25.047121 5.108711 -0.451154 -0.020909 -46.513035 31.692289 -15.922578 -106.000275 5.000000 5.965780 -28.894449 -15.639323 22.562950 -7.764857 -0.660644 0.036482 35.995602 -7.975491 -5.568710 124.453453 4.589404 -1.968466 25.683571 -14.019354 1.819769 -3.495873 23.138102 7.883811 19.641342 -6.005032 -2.437482 1.981258 3.763510 -10.182533 23.973021 -6.504541 -14.024275 12.612765 2.466478 0.601235 -19.901686 -6.961101 7.977873 
-1.101127 51.261501 -20.616484 -6.344775 -9.888056 -44.574013 30.775398 4.736052 3.266788 -0.865605 2.636479 -1.172406 0.547073 -3.006535 -0.158392 14.977247 -6.079430 24.757549 6.153715 0.143756 0.009741 -48.561031 32.343693 -17.016842 -106.533272 5.000000 6.392296 -29.085350 -15.773195 22.533167 -8.604650 -0.738665 0.040515 36.194645 -11.166776 -6.613903 125.552826 4.771437 -2.189149 25.739851 -14.068495 1.899441 -3.730281 23.175388 7.763266 19.592747 -6.028098 -2.465681 2.011273 3.738174 -10.222671 23.841511 -6.415642 -14.179923 12.502149 2.474303 0.585695 -19.886206 -6.859027 8.027240 
-1.121581 51.262318 -20.638849 -6.192071 -9.790133 -44.516026 30.719961 4.677130 3.336543 -0.939333 2.607236 -1.045547 0.548347 -3.096352 -0.164543 14.897477 -5.991684 24.546665 6.993394 0.621634 0.034360 -49.961182 32.556755 -17.661230 -106.827202 5.000000 6.719665 -29.250841 -15.836802 22.571346 -9.229572 -0.845944 0.046060 36.335056 -13.410896 -7.336105 126.345604 4.897991 -2.347745 25.762016 -14.160051 2.028491 -3.925495 23.246683 7.659230 19.544197 -6.053910 -2.465108 2.024541 3.764721 -10.265534 23.710592 -6.318686 -14.282848 12.458076 2.496086 0.584815 -19.864775 -6.797401 8.042188 
